#!OML:ASF F:\VICON\USERDATA\INSTALL\rory3\rory3.ASF
:FULLY-SPECIFIED
:DEGREES
1343
root 1.41537 17.6033 14.2682 -173.837 -5.25583 178.466
lowerback 2.44839 -1.42442 -4.43972
upperback -0.117275 -2.02029 2.63123
thorax -1.24646 -0.98635 5.28341
lowerneck -20.3001 0.742129 -9.38386
upperneck 32.8817 1.92007 1.86587
head 14.6692 -0.846498 2.54673
rclavicle 1.92821e-014 4.77083e-015
rhumerus -35.9631 -13.099 -76.4832
rradius 29.4289
rwrist 23.3049
rhand -19.5216 2.64453
rfingers 7.12502
rthumb 6.80163 -27.2262
lclavicle 1.92821e-014 4.77083e-015
lhumerus -35.2226 18.1303 77.1521
lradius 24.8106
lwrist -14.7761
lhand -10.9829 27.419
lfingers 7.12502
lthumb 15.037 56.8529
rfemur -22.1988 -0.43867 19.0883
rtibia 43.0203
rfoot -19.3332 -0.477722
rtoes 2.53648
lfemur -9.4631 1.35502 -25.2131
ltibia 22.4582
lfoot -16.9688 -3.52905
ltoes -7.47967
1344
root 1.42231 17.5902 14.248 -173.798 -5.5489 178.447
lowerback 2.19382 -1.47542 -4.43348
upperback -0.198039 -2.07764 2.60918
thorax -1.18076 -1.01452 5.25135
lowerneck -20.3122 0.71053 -9.37815
upperneck 32.9303 1.85097 1.92066
head 14.6978 -0.870595 2.55706
rclavicle -2.40529e-014 1.51076e-014
rhumerus -36.491 -13.2718 -76.2767
rradius 29.2816
rwrist 23.3976
rhand -19.6168 2.66566
rfingers 7.12502
rthumb 6.70975 -27.208
lclavicle -2.40529e-014 1.51076e-014
lhumerus -35.386 19.0026 76.6554
lradius 23.4884
lwrist -15.8943
lhand -10.9262 27.2024
lfingers 7.12502
lthumb 15.0916 56.6322
rfemur -21.5902 -0.373654 19.0536
rtibia 41.9138
rfoot -19.8601 -0.600731
rtoes 1.22979
lfemur -9.53372 1.41593 -25.1615
ltibia 22.5998
lfoot -16.9779 -3.82853
ltoes -8.36919
1345
root 1.42824 17.577 14.2296 -173.82 -5.80888 178.53
lowerback 1.97244 -1.51956 -4.32364
upperback -0.297599 -2.12628 2.62722
thorax -1.1564 -1.03823 5.2034
lowerneck -20.2477 0.701786 -9.36928
upperneck 33.0291 1.79758 1.94215
head 14.7317 -0.901635 2.55406
rclavicle -1.68967e-014 1.19271e-014
rhumerus -36.9861 -13.4732 -76.0394
rradius 29.0443
rwrist 23.5454
rhand -19.4451 2.43055
rfingers 7.12502
rthumb 6.87554 -27.4378
lclavicle -1.68967e-014 1.19271e-014
lhumerus -35.8829 19.6842 76.2369
lradius 22.5837
lwrist -16.8642
lhand -10.8184 27.6723
lfingers 7.12502
lthumb 15.1954 57.0943
rfemur -20.8791 -0.25641 19.1251
rtibia 40.8357
rfoot -20.473 -0.704648
rtoes 1.02475
lfemur -9.51978 1.5232 -25.0117
ltibia 22.6667
lfoot -17.0597 -4.12325
ltoes -9.08831
1346
root 1.43299 17.5713 14.2092 -173.858 -5.97778 178.478
lowerback 1.7422 -1.53011 -4.34339
upperback -0.399731 -2.13196 2.60422
thorax -1.13192 -1.03892 5.18501
lowerneck -20.0002 0.712908 -9.32806
upperneck 33.0306 1.77012 1.8628
head 14.6806 -0.928493 2.50422
rclavicle 1.17283e-014 -6.36111e-015
rhumerus -37.5631 -13.4002 -75.8724
rradius 28.9017
rwrist 23.5192
rhand -19.2145 2.05135
rfingers 7.12502
rthumb 7.09814 -27.8096
lclavicle 1.17283e-014 -6.36111e-015
lhumerus -36.4354 20.1915 75.9141
lradius 22.0371
lwrist -17.2814
lhand -10.1037 28.7958
lfingers 7.12502
lthumb 15.8838 58.1643
rfemur -20.1278 -0.103344 19.0311
rtibia 39.7963
rfoot -20.9002 -0.481747
rtoes 3.3767
lfemur -9.4701 1.60614 -25.0201
ltibia 22.7873
lfoot -17.2104 -4.32802
ltoes -9.52707
1347
root 1.43985 17.5665 14.1821 -173.863 -6.03214 178.267
lowerback 1.4007 -1.51044 -4.56777
upperback -0.454622 -2.09533 2.54006
thorax -0.995769 -1.0206 5.23458
lowerneck -19.6916 0.696626 -9.39516
upperneck 32.8805 1.71895 1.89048
head 14.5455 -0.947832 2.51236
rclavicle 6.41081e-015 -6.36111e-015
rhumerus -38.0524 -13.3449 -75.7149
rradius 28.6909
rwrist 23.6334
rhand -19.2701 2.06402
rfingers 7.12502
rthumb 7.04444 -27.7988
lclavicle 6.41081e-015 -6.36111e-015
lhumerus -36.9359 21.0146 75.4519
lradius 21.5297
lwrist -17.9328
lhand -9.23259 29.7881
lfingers 7.12502
lthumb 16.7225 59.0878
rfemur -19.4648 0.126051 18.8047
rtibia 38.8412
rfoot -21.2601 -0.373111
rtoes 4.635
lfemur -9.4183 1.62591 -25.2021
ltibia 22.9358
lfoot -17.3457 -4.36669
ltoes -9.89795
1348
root 1.44438 17.5575 14.1584 -173.906 -6.18618 178.369
lowerback 1.12654 -1.51396 -4.38698
upperback -0.46148 -2.08742 2.52525
thorax -0.856692 -1.02193 5.10732
lowerneck -19.6654 0.639201 -9.44079
upperneck 32.791 1.6384 1.96701
head 14.5033 -0.966064 2.53767
rclavicle -1.70955e-014 -1.82882e-014
rhumerus -38.3938 -13.4861 -75.5732
rradius 28.4552
rwrist 23.866
rhand -19.2994 2.32981
rfingers 7.12502
rthumb 7.01619 -27.5339
lclavicle -1.70955e-014 -1.82882e-014
lhumerus -37.2456 21.9747 74.8924
lradius 20.8767
lwrist -18.8564
lhand -8.71746 30.4429
lfingers 7.12502
lthumb 17.2184 59.7001
rfemur -18.8291 0.208948 18.9731
rtibia 37.9791
rfoot -21.6918 -0.41807
rtoes 3.93834
lfemur -9.33458 1.53948 -25.0358
ltibia 23.0364
lfoot -17.4496 -4.41901
ltoes -9.84213
